<?xml version="1.0" standalone="no"?>
<!DOCTYPE svg PUBLIC "-//W3C//DTD SVG 20010904//EN"
 "http://www.w3.org/TR/2001/REC-SVG-20010904/DTD/svg10.dtd">
<svg version="1.0" xmlns="http://www.w3.org/2000/svg"
 width="260.000000pt" height="260.000000pt" viewBox="0 0 260.000000 260.000000"
 preserveAspectRatio="xMidYMid meet">
<metadata>
Created by potrace 1.14, written by Peter Selinger 2001-2017
</metadata>
<g transform="translate(0.000000,260.000000) scale(0.100000,-0.100000)"
fill="#000000" stroke="none">
<path d="M81 2586 c-28 -33 -8 -123 45 -207 15 -24 69 -87 120 -139 l92 -95
-15 -87 c-16 -84 -17 -87 -40 -82 -55 14 -70 -43 -24 -91 26 -26 29 -35 22
-65 -4 -22 -10 -30 -14 -22 -10 15 -49 16 -65 0 -20 -20 -14 -40 22 -78 l33
-35 -15 -92 c-18 -103 -12 -123 38 -123 31 0 45 14 85 85 15 28 29 51 30 53 1
2 19 -7 39 -19 20 -12 39 -19 42 -16 5 5 -14 45 -38 78 -9 13 -7 24 11 53 l23
36 44 -26 c53 -31 58 -17 15 42 l-28 40 27 48 c15 26 32 52 37 57 5 5 44 -27
97 -80 l88 -89 -20 -44 c-21 -47 -41 -68 -87 -89 -19 -9 -30 -22 -30 -35 0
-31 -72 -101 -111 -109 -21 -4 -34 -12 -34 -22 0 -9 -6 -13 -14 -10 -15 6 -44
-52 -64 -125 -12 -46 -3 -49 20 -8 9 17 22 30 28 30 12 0 12 -4 1 -51 -6 -25
-4 -41 5 -54 8 -10 14 -36 14 -57 0 -42 20 -51 56 -23 10 8 29 15 42 15 37 0
100 -38 117 -70 10 -20 27 -33 53 -40 58 -16 66 -25 72 -81 5 -49 7 -52 34
-54 15 0 33 -8 40 -17 6 -8 30 -19 54 -23 23 -4 42 -12 42 -18 0 -7 16 -22 35
-35 42 -26 43 -36 11 -93 -14 -24 -29 -70 -35 -102 -13 -74 -25 -95 -59 -103
-39 -10 -48 -20 -69 -76 -10 -28 -24 -53 -30 -55 -7 -3 -13 -11 -13 -18 0 -7
-9 -15 -20 -18 -13 -3 -20 -14 -20 -29 0 -31 34 -85 59 -93 27 -8 28 -29 1
-22 -34 9 -22 -1 58 -48 196 -115 429 -166 657 -144 195 18 227 35 281 148 39
80 41 146 10 268 -14 56 -26 115 -26 130 0 76 -230 370 -302 387 -18 4 -46 29
-77 69 -72 91 -221 203 -477 356 l-122 72 23 47 c12 26 30 68 39 93 l18 46 59
-3 c33 -2 63 -5 67 -8 4 -2 7 28 7 66 l0 71 80 34 c44 18 88 43 97 54 10 12
24 19 30 16 17 -7 274 -212 282 -225 3 -6 19 3 36 20 22 22 36 28 53 24 12 -3
33 -9 46 -12 21 -6 23 -5 16 17 -4 13 -14 32 -23 41 -17 20 -24 15 126 73 73
29 87 47 39 53 -35 4 -51 25 -38 49 14 27 121 57 181 51 64 -6 145 -55 144
-86 0 -17 4 -20 26 -16 27 6 74 -11 120 -43 14 -9 -9 18 -50 61 -343 355 -903
424 -1333 165 l-37 -23 -45 44 -45 44 61 34 c54 30 62 32 77 19 25 -22 82 -49
82 -39 0 5 -11 25 -24 45 -27 39 -25 42 30 70 29 15 33 15 45 1 12 -15 61 -44
74 -44 4 0 -4 20 -18 44 l-24 43 64 38 c73 43 90 66 74 101 -12 28 -46 31
-148 12 l-63 -12 -34 33 c-37 36 -71 39 -90 9 -8 -13 -8 -23 1 -37 10 -16 9
-20 -3 -25 -30 -11 -51 -6 -74 19 -42 45 -102 26 -97 -30 2 -16 -10 -21 -80
-33 l-82 -15 -104 99 c-70 67 -125 110 -170 133 -79 40 -146 51 -166 27z
m1453 -473 l99 -6 -46 -24 c-26 -13 -58 -24 -72 -25 -28 -3 -33 -15 -10 -24
32 -13 0 -24 -68 -24 -43 -1 -82 -6 -97 -15 -14 -8 -38 -14 -54 -15 -16 0 -38
-7 -48 -17 -15 -13 -23 -14 -44 -5 -14 7 -36 9 -50 6 -39 -10 -27 28 14 40 42
14 21 51 -33 58 -29 4 -28 5 25 31 50 24 66 27 170 27 63 0 160 -3 214 -7z
m-514 -118 c11 -13 8 -19 -13 -39 -33 -31 -90 -39 -95 -13 -2 10 4 20 15 24
10 4 24 15 31 25 16 22 45 23 62 3z m478 -32 c-2 -13 -14 -19 -41 -21 -43 -4
-49 12 -9 26 41 15 54 14 50 -5z"/>
<path d="M1760 1632 c-19 -11 -44 -33 -55 -50 -14 -23 -28 -31 -48 -32 -16 0
-26 -4 -22 -10 3 -6 52 -10 111 -10 91 0 105 -2 110 -17 11 -36 22 -48 44 -51
13 -2 32 -14 42 -27 27 -34 54 -37 67 -8 11 25 12 25 31 8 16 -15 159 -49 168
-41 1 2 -1 20 -6 42 -7 35 -11 39 -45 45 -87 14 -69 49 25 49 l58 0 -23 46
c-13 28 -23 40 -25 30 -5 -22 -19 -20 -27 4 -4 11 -15 20 -27 20 -17 0 -20 -4
-15 -30 5 -23 2 -33 -16 -45 -12 -8 -29 -15 -39 -15 -10 0 -18 -8 -18 -17 -1
-17 -1 -17 -11 0 -6 9 -15 15 -20 11 -5 -3 -18 5 -28 17 -15 19 -21 21 -33 11
-12 -10 -19 -8 -34 9 -29 33 -95 79 -113 79 -9 0 -32 -8 -51 -18z"/>
<path d="M2297 1593 c-13 -12 -7 -40 13 -66 11 -14 20 -36 20 -50 0 -24 32
-62 43 -51 3 4 2 15 -3 25 -7 12 -6 19 3 22 8 4 0 16 -22 35 -20 17 -31 34
-27 40 8 14 -17 55 -27 45z"/>
<path d="M2200 1312 c0 -18 9 -50 20 -72 11 -22 20 -52 20 -69 0 -18 16 -54
43 -93 32 -48 48 -64 70 -66 15 -2 27 -5 27 -7 0 -12 -183 -390 -209 -429 -17
-28 -31 -60 -31 -71 0 -33 -36 -130 -70 -189 -40 -71 -98 -135 -171 -190 -34
-25 -58 -46 -55 -46 13 0 153 74 206 109 74 48 209 179 269 260 103 139 167
288 196 459 14 82 14 100 0 187 -18 111 -34 149 -73 169 -16 8 -34 22 -41 30
-8 9 -22 16 -33 16 -31 0 -17 -32 23 -53 37 -19 59 -52 59 -86 0 -23 -37 -71
-54 -71 -7 0 -25 -10 -40 -21 -15 -12 -28 -20 -29 -18 -2 2 -18 42 -36 89 -19
47 -47 110 -62 140 -27 54 -28 54 -29 22z m134 -678 c5 -17 0 -33 -14 -51 -11
-14 -20 -39 -20 -55 0 -48 -16 -68 -55 -68 -44 0 -52 15 -26 51 11 15 21 40
21 53 0 19 7 27 24 32 15 3 29 17 35 35 12 36 27 37 35 3z"/>
<path d="M354 1194 c-4 -27 -4 -98 -1 -158 17 -306 163 -593 401 -788 l51 -42
-51 54 c-80 87 -101 131 -148 300 -9 31 -31 76 -49 100 -19 25 -40 63 -47 85
-7 22 -25 64 -41 93 -22 38 -27 57 -20 70 5 9 9 28 9 42 0 14 3 43 7 66 6 34
3 46 -19 78 -14 22 -26 44 -26 50 0 6 -13 30 -29 54 l-30 43 -7 -47z"/>
</g>
</svg>
